<svg width="872" height="462" viewBox="0 0 872 462" fill="none" xmlns="http://www.w3.org/2000/svg">
<path d="M370.36 98.7472C381.539 72.6638 409.019 56.3616 434.171 61.4852C459.789 66.6087 480.283 92.6921 482.146 122.036C482.612 121.57 483.078 120.639 484.009 120.173C482.146 127.159 480.749 134.612 480.283 142.064C500.311 124.831 521.271 108.528 543.163 93.6237C572.041 74.0611 605.577 55.8959 640.044 60.5536V59.6221C669.854 64.2798 698.732 77.3215 722.952 97.8157C750.433 121.104 773.256 161.161 762.543 197.957C756.488 205.41 752.296 214.725 751.364 224.041C763.474 216.123 776.05 207.739 789.558 202.149C803.065 197.026 818.436 194.231 832.875 198.423L833.341 197.492C848.711 209.136 858.493 228.699 860.822 250.59C863.616 275.276 857.095 299.962 846.382 321.854C827.751 359.116 800.271 387.062 767.666 404.762L767.201 403.83C696.403 424.79 615.824 408.954 558.068 363.308C558.533 369.363 559.465 374.952 561.794 380.541C574.37 392.651 520.34 416.406 516.148 417.338C492.859 422.927 463.515 425.256 435.569 420.132L436.034 417.803C403.896 398.241 376.881 370.76 358.25 338.156C355.921 347.006 355.921 355.855 357.784 364.705L357.318 367.965C342.879 409.419 293.041 428.05 247.861 442.489C219.449 451.339 187.776 454.134 157.035 450.408C140.267 444.353 123.499 438.298 108.128 428.982C68.0718 404.762 41.9885 360.047 41.0569 313.47C40.1254 266.892 63.8798 220.78 102.539 195.163L102.073 193.765C114.184 188.176 126.759 184.45 139.335 183.053C142.596 182.587 145.856 182.587 149.582 182.121V174.669C148.651 108.063 186.845 50.7723 240.409 13.9762C253.916 9.78422 268.355 8.3869 282.328 9.31845C298.165 10.25 314.001 14.9078 327.509 24.2233C350.797 40.0596 365.237 69.4033 370.36 99.6788C370.36 99.6788 370.36 99.213 370.36 98.7472Z" fill="white"/>
<path d="M436.5 418.734L436.034 421.063C403.43 415.473 373.154 400.103 357.784 369.362L358.249 366.101C356.386 357.251 356.386 347.936 358.715 339.552C377.346 371.691 404.361 399.171 436.5 418.734Z" fill="black"/>
<path d="M767.666 404.764L768.132 405.696C702.923 442.026 620.015 436.437 562.259 381.475C560.396 375.886 558.999 369.831 558.533 364.242C616.289 409.888 696.868 425.258 767.666 404.764Z" fill="black"/>
<path d="M833.806 198.422L833.341 199.353C819.367 195.627 803.997 197.956 790.023 203.079C776.516 208.669 763.94 216.587 751.83 224.971C752.761 215.655 756.488 206.34 763.008 198.887C762.543 200.285 762.077 201.216 761.611 202.614C777.448 189.106 799.339 184.448 818.436 190.503C824.025 191.901 829.149 194.695 833.806 198.422Z" fill="black"/>
<path d="M108.128 428.986C123.499 438.302 140.267 444.357 157.035 450.412C126.293 446.686 96.0181 437.37 69.9347 421.534C41.0568 404.3 16.3707 374.956 11.2471 338.16C7.52095 311.611 14.9734 283.664 28.4808 260.841C45.2487 231.963 72.2635 207.743 102.073 193.77L102.539 195.167C63.8796 220.785 39.6594 266.896 41.0568 313.474C41.9883 360.052 68.0716 404.766 108.128 428.986Z" fill="black"/>
<path d="M239.943 14.4401C253.45 10.2481 267.889 8.85077 281.862 9.78232C297.699 10.7139 313.535 15.3716 327.043 24.6871C350.331 40.5235 364.77 69.8672 369.894 100.143C369.894 100.143 370.36 99.6768 370.36 99.211C381.538 73.1276 409.019 56.8254 434.171 61.949C459.789 67.0725 480.283 93.1559 482.146 122.5C482.612 122.034 483.077 121.102 484.009 120.637C514.284 85.7035 556.204 63.3463 599.055 58.6885C612.563 57.2912 626.536 57.757 640.044 60.0859C669.853 64.7436 698.731 77.7853 722.952 98.2795C750.433 121.568 773.256 161.625 762.543 198.421C762.077 199.819 761.611 200.75 761.145 202.147C776.982 188.64 798.873 183.982 817.97 190.037C823.559 191.9 829.149 194.695 833.806 198.421C849.177 210.066 858.958 229.628 861.287 251.52C864.082 276.206 857.561 300.892 846.848 322.783C828.217 360.045 800.736 387.992 768.132 405.691C702.923 442.022 620.015 436.432 562.259 381.471C574.835 393.581 520.805 417.336 516.613 418.267C493.324 423.856 463.981 426.185 436.034 421.062C403.43 415.473 373.154 400.102 357.784 369.361C342.879 409.417 293.041 428.048 247.861 442.487C219.449 451.337 187.776 454.132 157.035 450.406C126.293 446.679 96.0181 437.364 69.9347 421.528C41.0568 404.294 16.3707 374.95 11.2471 338.154C7.52095 311.605 14.9734 283.658 28.4808 260.835C45.2488 231.957 72.2635 207.737 102.073 193.763C114.183 188.174 126.759 184.448 139.335 183.051C142.596 182.585 145.856 182.585 149.582 182.119C152.377 182.119 155.172 182.119 157.5 182.119" stroke="black" stroke-width="18.631" stroke-miterlimit="10" stroke-linecap="round" stroke-linejoin="round"/>
<path d="M139.336 181.185C134.678 136.936 148.185 90.3585 175.2 57.7542C192.434 36.7943 215.257 21.8895 239.943 14.4371" stroke="black" stroke-width="18.631" stroke-miterlimit="10" stroke-linecap="round" stroke-linejoin="round"/>
<path d="M149.117 174.67C148.185 108.064 186.379 50.7733 239.943 13.977C240.409 13.5112 240.875 13.5112 241.341 13.0454" stroke="black" stroke-width="18.631" stroke-miterlimit="10" stroke-linecap="round" stroke-linejoin="round"/>
<path d="M102.54 195.162C63.8802 220.779 39.6598 266.891 41.0571 313.469C41.9887 360.046 68.0722 404.761 108.129 428.981C123.499 438.297 140.267 444.352 157.035 450.407" stroke="black" stroke-width="18.631" stroke-miterlimit="10" stroke-linecap="round" stroke-linejoin="round"/>
<path d="M371.757 95.0201C371.291 96.4174 370.826 97.8147 370.826 99.212C369.428 106.664 368.963 114.117 369.894 122.035C382.004 91.2939 414.609 70.334 447.679 72.6628" stroke="black" stroke-width="18.631" stroke-miterlimit="10" stroke-linecap="round" stroke-linejoin="round"/>
<path d="M485.872 114.581C485.407 116.445 484.475 118.308 484.475 120.171C482.612 127.157 481.215 134.61 480.749 142.062C500.777 124.828 521.737 108.526 543.628 93.6215C572.507 74.0589 606.042 55.8937 640.51 60.5515C641.907 60.5515 642.839 61.0172 644.236 61.0172" stroke="black" stroke-width="18.631" stroke-miterlimit="10" stroke-linecap="round" stroke-linejoin="round"/>
<path d="M763.94 196.563C763.474 197.029 763.008 197.494 762.543 197.96C756.488 205.413 752.296 214.728 751.364 224.044C763.474 216.125 776.05 207.741 789.558 202.152C803.065 197.029 818.436 194.234 832.875 198.426" stroke="black" stroke-width="18.631" stroke-miterlimit="10" stroke-linecap="round" stroke-linejoin="round"/>
<path d="M564.122 385.667C563.657 384.27 562.725 382.873 562.259 381.475C560.396 375.886 558.999 369.831 558.533 364.242C616.289 409.888 696.868 425.724 767.666 404.764" stroke="black" stroke-width="18.631" stroke-miterlimit="10" stroke-linecap="round" stroke-linejoin="round"/>
<path d="M357.784 365.637C355.921 356.788 355.921 347.472 358.25 339.088C376.881 371.692 403.896 399.173 436.035 418.736" stroke="black" stroke-width="18.631" stroke-miterlimit="10" stroke-linecap="round" stroke-linejoin="round"/>
<path d="M282.792 293.771C279.683 293.653 276.555 289.993 273.406 282.791C271.32 278.147 269.53 272.794 268.034 266.733C265.122 267.166 260.36 267.599 253.748 268.032C247.53 268.465 242.767 268.977 239.462 269.567C237.651 273.896 234.503 280.41 230.016 289.107C228.284 291.941 225.884 293.358 222.814 293.358C220.649 293.358 218.701 292.63 216.97 291.174C215.238 289.678 214.372 287.789 214.372 285.506C214.372 283.499 217.245 276.691 222.991 265.081C222.44 263.86 222.204 262.719 222.283 261.657C222.44 259.767 224.349 258.292 228.009 257.229C233.597 247.547 239.816 237.512 246.664 227.122C256.503 212.206 262.563 204.748 264.846 204.748C269.175 204.748 272.068 207.365 273.524 212.599C274.311 216.81 275.551 223.127 277.243 231.549C279.644 242.884 282.576 255.852 286.039 270.453C286.315 271.555 287.318 274.152 289.05 278.245C290.467 281.63 291.175 284.168 291.175 285.86C291.175 288.143 290.309 290.052 288.578 291.587C286.885 293.122 284.957 293.85 282.792 293.771ZM260.773 233.202C257.703 238.476 253.472 245.658 248.08 254.75C249.852 254.356 252.606 254.041 256.345 253.805C260.753 253.53 263.528 253.313 264.669 253.156C263.724 248.039 262.426 241.388 260.773 233.202ZM349.619 289.698C340.449 293.122 328.859 294.834 314.848 294.834C312.487 294.834 310.361 293.85 308.472 291.882C306.623 289.914 305.698 287.809 305.698 285.565V222.989C305.58 220.313 305.481 217.637 305.402 214.961C305.284 211.93 305.383 209.372 305.698 207.286C306.249 203.587 309.692 201.343 316.029 200.556C319.02 199.691 323.979 199.258 330.905 199.258C338.343 199.258 345.467 201.658 352.275 206.46C360.265 212.048 364.259 219.034 364.259 227.417C364.259 231.943 363.433 235.76 361.78 238.869C360.481 241.388 358.218 244.084 354.991 246.957C358.809 248.807 362.193 251.601 365.145 255.34C368.49 259.512 370.163 263.664 370.163 267.796C370.163 273.03 367.309 277.989 361.603 282.673C357.785 285.782 353.791 288.123 349.619 289.698ZM330.905 215.256C325.828 215.256 322.778 215.295 321.755 215.374L321.814 227.889L321.755 240.286C325.336 240.719 328.032 240.857 329.843 240.699C341.885 239.755 347.907 235.327 347.907 227.417C347.907 224.623 346.136 221.927 342.594 219.329C338.934 216.614 335.038 215.256 330.905 215.256ZM337.812 256.993C334.231 256.993 328.878 256.855 321.755 256.58V278.658C328.524 278.304 335.864 277.005 343.775 274.762C350.701 272.794 354.125 270.669 354.046 268.386C353.928 265.356 351.705 262.66 347.376 260.299C343.991 258.41 340.803 257.308 337.812 256.993ZM420.105 295.601C408.456 295.601 398.538 292.256 390.352 285.565C381.615 278.403 377.247 269.134 377.247 257.76C377.247 244.379 381.438 232.179 389.821 221.159C399.227 208.762 411.073 202.564 425.36 202.564C439.095 202.564 449.386 205.712 456.234 212.009C463.082 218.306 466.506 227.771 466.506 240.404C466.506 253.785 462.649 265.907 454.936 276.769C446.041 289.324 434.431 295.601 420.105 295.601ZM425.36 218.562C416.583 218.562 409.066 222.812 402.809 231.313C396.944 239.263 394.012 248.079 394.012 257.76C394.012 264.293 396.551 269.606 401.628 273.699C406.508 277.635 412.667 279.603 420.105 279.603C428.764 279.603 435.986 275.352 441.771 266.852C447.084 259.098 449.741 250.283 449.741 240.404C449.741 232.14 447.891 226.394 444.191 223.166C440.649 220.097 434.372 218.562 425.36 218.562ZM538.41 281.787C535.537 285.683 532.073 288.93 528.02 291.528C523.061 294.676 517.964 296.25 512.73 296.25C502.694 296.25 495.236 294.322 490.356 290.465C480.045 282.318 474.889 268.17 474.889 248.02C474.889 246.091 474.987 243.218 475.184 239.401C475.381 235.583 475.479 232.71 475.479 230.782C475.479 229.247 475.519 226.964 475.597 223.934C475.676 220.864 475.715 218.562 475.715 217.027C475.715 213.878 476.286 210.907 477.427 208.113C478.962 204.413 481.107 202.564 483.862 202.564C486.027 202.564 487.936 203.272 489.588 204.689C491.399 206.184 492.304 208.113 492.304 210.474C492.304 212.717 492.265 216.122 492.186 220.687C492.147 225.213 492.127 228.617 492.127 230.9C492.127 232.789 492.029 235.642 491.832 239.46C491.635 243.277 491.537 246.131 491.537 248.02C491.537 254.12 492.245 259.787 493.662 265.021C495.315 271.279 497.735 275.648 500.923 278.127C502.576 279.426 506.512 280.114 512.73 280.193C523.12 280.351 530.125 271.496 533.746 253.628C535.635 244.379 536.58 231.392 536.58 214.665C536.58 212.462 537.229 210.336 538.528 208.29C540.299 205.574 542.817 204.216 546.084 204.216C548.76 204.216 550.767 205.2 552.105 207.168C553.129 208.624 553.64 210.238 553.64 212.009C553.64 227.555 552.912 239.676 551.456 248.374C549.252 261.794 544.903 272.932 538.41 281.787ZM635.934 221.218C632.864 221.218 628.082 221.002 621.588 220.569C615.331 220.136 610.549 219.939 607.243 219.979C607.401 224.465 607.932 232.454 608.837 243.946C609.664 254.1 610.077 262.129 610.077 268.032C610.077 269.37 610.215 271.358 610.49 273.995C610.766 276.631 610.903 278.619 610.903 279.957C610.903 282.909 610.274 285.565 609.014 287.927C607.401 290.957 605.098 292.472 602.107 292.472C599.943 292.472 598.034 291.784 596.381 290.406C594.531 288.871 593.606 286.943 593.606 284.621C593.606 284.07 593.705 283.243 593.902 282.141C594.098 281 594.197 280.134 594.197 279.544C594.197 277.733 594.059 274.998 593.783 271.338C593.547 267.678 593.429 264.923 593.429 263.073C593.429 257.8 593.016 250.657 592.19 241.644C591.245 231.293 590.694 224.15 590.537 220.215H587.467C578.69 220.215 571.724 219.585 566.569 218.326C562.2 217.263 560.016 214.685 560.016 210.592C560.016 208.585 560.724 206.775 562.141 205.161C563.794 203.233 565.959 202.367 568.635 202.564C570.012 202.642 573.141 202.977 578.021 203.567C581.918 204 585.066 204.216 587.467 204.216C589.868 204.216 593.449 204.177 598.211 204.098C603.012 204.02 606.613 203.98 609.014 203.98C612.005 203.98 616.492 204.197 622.474 204.63C628.456 205.023 632.943 205.22 635.934 205.22C638.295 205.22 640.263 205.987 641.837 207.522C643.451 209.057 644.257 210.946 644.257 213.19C644.257 215.433 643.451 217.342 641.837 218.916C640.263 220.451 638.295 221.218 635.934 221.218Z" fill="black"/>
</svg>
