<svg width="871" height="462" viewBox="0 0 871 462" fill="none" xmlns="http://www.w3.org/2000/svg">
<path d="M370.07 98.7046C381.248 72.6212 408.729 56.319 433.881 61.4426C459.498 66.5661 479.993 92.6495 481.856 121.993C482.322 121.528 482.787 120.596 483.719 120.13C481.856 127.117 480.458 134.569 479.993 142.022C500.021 124.788 520.981 108.486 542.872 93.5811C571.75 74.0185 605.286 55.8532 639.754 60.511V59.5795C669.563 64.2372 698.441 77.2789 722.662 97.773C750.142 121.062 772.965 161.118 762.252 197.915C756.197 205.367 752.005 214.683 751.074 223.998C763.184 216.08 775.76 207.696 789.267 202.107C802.775 196.983 818.146 194.189 832.585 198.381L833.05 197.449C848.421 209.093 858.202 228.656 860.531 250.547C863.326 275.233 856.805 299.92 846.092 321.811C827.461 359.073 799.98 387.02 767.376 404.719L766.91 403.788C696.112 424.747 615.533 408.911 557.777 363.265C558.243 369.32 559.174 374.909 561.503 380.499C574.079 392.609 520.049 416.363 515.857 417.295C492.569 422.884 463.225 425.213 435.278 420.09L435.744 417.761C403.605 398.198 376.59 370.717 357.959 338.113C355.631 346.963 355.631 355.813 357.494 364.662L357.028 367.923C342.589 409.377 292.751 428.008 247.571 442.447C219.158 451.297 187.486 454.091 156.744 450.365C139.977 444.31 123.209 438.255 107.838 428.939C67.7814 404.719 41.6981 360.005 40.7665 313.427C39.835 266.85 63.5894 220.738 102.249 195.12L101.783 193.723C113.893 188.133 126.469 184.407 139.045 183.01C142.305 182.544 145.566 182.544 149.292 182.078V174.626C148.361 108.02 186.554 50.7297 240.118 13.9336C253.626 9.74162 268.065 8.3443 282.038 9.27585C297.874 10.2074 313.711 14.8652 327.218 24.1807C350.507 40.017 364.946 69.3607 370.07 99.6361C370.07 99.6361 370.07 99.1704 370.07 98.7046Z" fill="white"/>
<path d="M436.209 418.691L435.743 421.02C403.139 415.431 372.864 400.06 357.493 369.319L357.959 366.058C356.096 357.209 356.096 347.893 358.425 339.509C377.056 371.648 404.071 399.129 436.209 418.691Z" fill="black"/>
<path d="M767.376 404.722L767.841 405.653C702.633 441.984 619.725 436.394 561.969 381.433C560.106 375.844 558.708 369.789 558.243 364.199C615.999 409.845 696.578 425.216 767.376 404.722Z" fill="black"/>
<path d="M833.516 198.379L833.05 199.311C819.077 195.584 803.706 197.913 789.733 203.037C776.226 208.626 763.65 216.544 751.539 224.928C752.471 215.613 756.197 206.297 762.718 198.845C762.252 200.242 761.787 201.174 761.321 202.571C777.157 189.064 799.049 184.406 818.145 190.461C823.735 191.858 828.858 194.653 833.516 198.379Z" fill="black"/>
<path d="M107.838 428.944C123.208 438.259 139.976 444.314 156.744 450.369C126.003 446.643 95.7277 437.328 69.6443 421.491C40.7664 404.258 16.0803 374.914 10.9567 338.117C7.23054 311.568 14.6829 283.622 28.1904 260.799C44.9583 231.921 71.9731 207.7 101.783 193.727L102.249 195.124C63.5892 220.742 39.369 266.854 40.7664 313.431C41.6979 360.009 67.7811 404.723 107.838 428.944Z" fill="black"/>
<path d="M239.652 14.3975C253.16 10.2055 267.599 8.80816 281.572 9.73971C297.408 10.6713 313.245 15.329 326.752 24.6445C350.041 40.4809 364.48 69.8246 369.604 100.1C369.604 100.1 370.069 99.6342 370.069 99.1684C381.248 73.085 408.729 56.7828 433.881 61.9064C459.498 67.0299 479.992 93.1133 481.856 122.457C482.321 121.991 482.787 121.06 483.719 120.594C513.994 85.6609 555.914 63.3037 598.765 58.6459C612.273 57.2486 626.246 57.7144 639.753 60.0433C669.563 64.701 698.441 77.7427 722.661 98.2369C750.142 121.526 772.965 161.582 762.252 198.379C761.787 199.776 761.321 200.707 760.855 202.105C776.691 188.597 798.583 183.94 817.68 189.995C823.269 191.858 828.858 194.652 833.516 198.379C848.887 210.023 858.668 229.586 860.997 251.477C863.791 276.163 857.27 300.849 846.558 322.741C827.927 360.003 800.446 387.949 767.842 405.649C702.633 441.979 619.725 436.39 561.969 381.428C574.545 393.538 520.515 417.293 516.323 418.225C493.034 423.814 463.69 426.143 435.744 421.019C403.139 415.43 372.864 400.059 357.493 369.318C342.589 409.375 292.751 428.006 247.57 442.445C219.158 451.295 187.485 454.089 156.744 450.363C126.003 446.637 95.7277 437.321 69.6443 421.485C40.7664 404.251 16.0803 374.907 10.9567 338.111C7.23054 311.562 14.6829 283.615 28.1904 260.792C44.9583 231.914 71.9731 207.694 101.783 193.721C113.893 188.132 126.469 184.405 139.045 183.008C142.305 182.542 145.566 182.542 149.292 182.076C152.087 182.076 154.881 182.076 157.21 182.076" stroke="black" stroke-width="18.631" stroke-miterlimit="10" stroke-linecap="round" stroke-linejoin="round"/>
<path d="M139.045 181.142C134.388 136.893 147.895 90.3159 174.91 57.7116C192.144 36.7517 214.967 21.8469 239.653 14.3945" stroke="black" stroke-width="18.631" stroke-miterlimit="10" stroke-linecap="round" stroke-linejoin="round"/>
<path d="M148.827 174.627C147.895 108.021 186.089 50.7308 239.653 13.9345C240.119 13.4687 240.584 13.4687 241.05 13.0029" stroke="black" stroke-width="18.631" stroke-miterlimit="10" stroke-linecap="round" stroke-linejoin="round"/>
<path d="M102.249 195.119C63.5898 220.737 39.3694 266.849 40.7667 313.426C41.6983 360.004 67.7818 404.718 107.838 428.938C123.209 438.254 139.977 444.309 156.745 450.364" stroke="black" stroke-width="18.631" stroke-miterlimit="10" stroke-linecap="round" stroke-linejoin="round"/>
<path d="M371.467 94.9775C371.001 96.3748 370.535 97.7721 370.535 99.1694C369.138 106.622 368.672 114.074 369.604 121.992C381.714 91.2513 414.318 70.2914 447.388 72.6202" stroke="black" stroke-width="18.631" stroke-miterlimit="10" stroke-linecap="round" stroke-linejoin="round"/>
<path d="M485.582 114.539C485.116 116.402 484.185 118.265 484.185 120.128C482.321 127.115 480.924 134.567 480.458 142.02C500.487 124.786 521.447 108.484 543.338 93.579C572.216 74.0165 605.752 55.8512 640.219 60.509C641.617 60.509 642.548 60.9748 643.946 60.9748" stroke="black" stroke-width="18.631" stroke-miterlimit="10" stroke-linecap="round" stroke-linejoin="round"/>
<path d="M763.65 196.52C763.184 196.986 762.718 197.452 762.252 197.917C756.197 205.37 752.005 214.685 751.074 224.001C763.184 216.083 775.76 207.699 789.267 202.109C802.775 196.986 818.145 194.191 832.584 198.383" stroke="black" stroke-width="18.631" stroke-miterlimit="10" stroke-linecap="round" stroke-linejoin="round"/>
<path d="M563.832 385.625C563.366 384.228 562.435 382.83 561.969 381.433C560.106 375.844 558.708 369.789 558.243 364.199C615.999 409.845 696.578 425.682 767.376 404.722" stroke="black" stroke-width="18.631" stroke-miterlimit="10" stroke-linecap="round" stroke-linejoin="round"/>
<path d="M357.494 365.595C355.631 356.745 355.631 347.429 357.96 339.045C376.591 371.65 403.606 399.13 435.744 418.693" stroke="black" stroke-width="18.631" stroke-miterlimit="10" stroke-linecap="round" stroke-linejoin="round"/>
<path d="M302.174 229.129C298.631 229.129 296.014 227.259 294.322 223.521C293.535 221.75 292.748 220.687 291.961 220.333C291.37 220.057 289.816 219.92 287.297 219.92C282.338 219.92 276.612 223.776 270.118 231.49C261.027 242.274 256.481 252.369 256.481 261.775C256.481 266.064 257.918 269.744 260.791 272.814C263.664 275.884 267.107 277.419 271.122 277.419C275.018 277.419 278.973 276.395 282.987 274.349C284.404 273.601 287.395 271.673 291.961 268.564C295.03 266.517 297.352 265.494 298.927 265.494C301.288 265.494 303.295 266.36 304.948 268.091C306.483 269.705 307.25 271.555 307.25 273.64C307.25 275.962 306.227 277.989 304.181 279.721C293.358 288.852 282.338 293.417 271.122 293.417C262.267 293.417 254.789 290.19 248.689 283.735C242.864 277.517 239.952 270.197 239.952 261.775C239.952 248.59 245.717 235.131 257.249 221.395C267.048 209.746 277.064 203.921 287.297 203.921C289.029 203.921 290.583 203.98 291.961 204.098C293.377 204.216 294.617 204.394 295.68 204.63C297.411 202.937 299.497 202.091 301.937 202.091C305.952 202.091 308.431 204.394 309.376 208.998C310.045 212.304 310.379 216.161 310.379 220.569C310.379 222.537 309.809 224.327 308.667 225.941C307.172 228.066 305.007 229.129 302.174 229.129ZM373.368 289.757C368.724 291.803 361.542 293.633 351.821 295.247C342.927 296.742 335.626 297.49 329.919 297.49C320.277 297.49 315.456 293.259 315.456 284.798C315.456 285.467 315.85 279.229 316.637 266.084C317.66 249.004 318.172 229.995 318.172 209.057C318.172 206.814 318.939 204.905 320.474 203.331C322.048 201.757 324.016 200.97 326.377 200.97C328.739 200.97 330.707 201.757 332.281 203.331C333.855 204.905 334.642 206.814 334.642 209.057C334.642 230.034 334.111 249.358 333.048 267.029C332.694 270.177 332.32 274.998 331.927 281.492C341.254 281.335 353.218 279.052 367.819 274.644C368.724 274.369 369.59 274.231 370.417 274.231C372.896 274.231 374.903 275.136 376.438 276.946C377.816 278.56 378.504 280.37 378.504 282.377C378.504 285.762 376.792 288.222 373.368 289.757ZM424.846 295.601C413.197 295.601 403.279 292.256 395.093 285.565C386.356 278.403 381.987 269.134 381.987 257.76C381.987 244.379 386.179 232.179 394.562 221.159C403.968 208.762 415.814 202.564 430.1 202.564C443.835 202.564 454.127 205.712 460.975 212.009C467.823 218.306 471.247 227.771 471.247 240.404C471.247 253.785 467.39 265.907 459.676 276.769C450.782 289.324 439.172 295.601 424.846 295.601ZM430.1 218.562C421.324 218.562 413.807 222.812 407.549 231.313C401.685 239.263 398.753 248.079 398.753 257.76C398.753 264.293 401.292 269.606 406.368 273.699C411.249 277.635 417.408 279.603 424.846 279.603C433.504 279.603 440.726 275.352 446.512 266.852C451.825 259.098 454.481 250.283 454.481 240.404C454.481 232.14 452.631 226.394 448.932 223.166C445.39 220.097 439.113 218.562 430.1 218.562ZM508.733 295.601C498.737 295.601 490.866 293.377 485.12 288.93C480.279 285.231 477.859 280.961 477.859 276.12C477.859 273.64 478.606 271.594 480.102 269.98C481.597 268.327 483.664 267.501 486.3 267.501C489.843 267.501 492.44 269.311 494.093 272.932C496.336 277.773 501.413 280.193 509.324 280.193C516.093 280.193 522.646 278.717 528.982 275.766C535.554 272.735 538.841 269.41 538.841 265.789C538.841 260.83 536.794 257.564 532.701 255.989C529.789 254.848 523.944 254.179 515.168 253.982C508.36 253.825 502.259 252.546 496.868 250.145C489.587 246.878 486.005 242.195 486.123 236.095C486.241 228.42 490.334 221.395 498.402 215.02C506.47 208.605 515.365 205.397 525.086 205.397C528.943 205.397 533.705 206.283 539.372 208.054C546.417 210.258 549.939 212.796 549.939 215.669C549.939 217.716 549.231 219.526 547.814 221.1C546.24 222.871 544.213 223.757 541.733 223.757C539.884 223.757 537.109 223.363 533.41 222.576C529.749 221.789 526.975 221.395 525.086 221.395C520.009 221.435 515.188 222.655 510.622 225.055C505.9 227.496 503.538 230.152 503.538 233.025C503.538 234.521 504.247 235.76 505.664 236.744C507.12 237.689 509.284 238.358 512.157 238.751C517.195 239.027 522.213 239.302 527.211 239.578C535.948 240.247 542.855 242.707 547.932 246.957C553.521 251.68 556.315 258.213 556.315 266.556C556.315 276.71 550.529 284.404 538.959 289.639C530.143 293.614 520.068 295.601 508.733 295.601ZM624.322 216.318C623.535 216.318 622.708 216.2 621.842 215.964C615.467 214.233 609.268 213.367 603.247 213.367C600.295 213.367 597.127 213.603 593.742 214.075C590.358 214.547 586.757 215.256 582.939 216.2C582.939 221.435 582.762 229.208 582.408 239.519C584.612 239.361 592.306 238.633 605.49 237.335C613.007 236.587 617.769 236.213 619.776 236.213C622.098 236.213 624.086 236.961 625.739 238.456C627.392 239.912 628.218 241.86 628.218 244.301C628.218 248.984 625.719 251.64 620.721 252.27C617.572 252.506 612.869 252.9 606.612 253.451C601.023 254.081 592.601 254.848 581.345 255.753C581.07 260.751 580.932 264.785 580.932 267.855C580.932 275.569 581.385 279.957 582.29 281.02C582.723 281.531 585.202 281.787 589.728 281.787C592.168 281.787 595.848 281.728 600.767 281.61C605.687 281.492 609.367 281.433 611.807 281.433C612.594 281.433 613.755 281.315 615.29 281.079C616.825 280.843 617.966 280.725 618.714 280.725C620.996 280.725 622.944 281.374 624.558 282.673C626.408 284.129 627.333 286.175 627.333 288.812C627.333 293.22 625.03 295.857 620.426 296.723C616.49 297.47 608.324 297.844 595.927 297.844C583.097 297.844 574.733 296.113 570.837 292.649C566.547 288.832 564.402 280.567 564.402 267.855C564.402 262.581 564.776 254.671 565.524 244.123C566.311 233.537 566.705 225.626 566.705 220.392C566.705 219.014 566.508 216.987 566.114 214.311C565.721 211.596 565.524 209.549 565.524 208.172C565.524 202.19 568.279 199.199 573.789 199.199C575.52 199.199 577.114 199.691 578.571 200.674C583.136 199.533 587.465 198.687 591.558 198.136C595.69 197.546 599.587 197.25 603.247 197.25C613.164 197.25 621.095 198.392 627.037 200.674C630.658 202.052 632.469 204.551 632.469 208.172C632.469 210.218 631.76 212.029 630.343 213.603C628.769 215.413 626.762 216.318 624.322 216.318Z" fill="black"/>
</svg>
