<svg width="927" height="455" viewBox="0 0 927 455" fill="none" xmlns="http://www.w3.org/2000/svg">
<path d="M67.6709 378.408C85.0633 401.598 127.965 421.31 153.473 434.644C76.3671 419.57 36.9443 385.365 22.4507 361.596C-3.05819 318.695 22.4507 254.922 70.5696 240.429L84.4836 248.545C66.5114 257.821 52.0178 276.373 47.3798 296.664C41.0026 325.072 50.2785 355.219 67.6709 378.408Z" fill="black"/>
<path d="M153.473 434.651C76.3671 419.577 36.9443 385.372 22.4507 361.603C-3.05819 318.701 22.4507 254.929 70.5696 240.436C47.9595 215.506 39.2633 178.403 48.5393 146.517C57.8152 114.051 114.051 57.8155 133.762 96.6583" stroke="black" stroke-width="23.1899" stroke-miterlimit="10" stroke-linecap="round" stroke-linejoin="round"/>
<path d="M636.403 367.394L635.823 367.973C634.663 366.814 634.084 365.075 632.924 363.915C640.461 380.728 601.038 407.976 590.603 414.933C574.37 426.528 550.6 432.905 526.251 434.064C478.132 423.629 435.81 390.004 414.36 345.943C410.301 353.48 407.982 361.596 408.562 370.292L409.722 372.031C366.82 409.715 306.527 443.34 241.595 443.34C207.97 443.34 178.982 440.442 153.473 435.224C127.964 421.89 85.0633 402.178 67.6709 378.988C50.2782 355.799 41.0023 325.072 47.9592 297.244C52.5972 276.953 66.5114 258.401 85.0633 249.125C92.0203 245.647 100.137 243.328 108.253 242.748C96.6582 225.356 84.4836 207.383 79.2658 187.092C73.4684 166.801 75.2076 143.611 88.5418 127.378C101.876 111.145 128.544 105.928 144.197 119.262C139.56 96.072 149.415 71.1429 165.648 53.1707C180.721 36.358 200.433 25.3428 220.724 15.4871C221.884 15.4871 223.043 14.9074 224.203 14.9074C254.929 9.68968 287.975 14.9074 314.063 31.7201C340.152 48.5327 359.284 78.0999 360.443 109.406L358.123 111.145C358.123 118.102 358.704 125.059 358.704 132.016C375.516 96.072 405.084 65.9252 441.028 48.5327C474.073 53.1707 502.481 83.3176 503.64 116.943C504.22 116.363 504.8 115.204 505.38 114.624C502.481 124.48 500.742 134.915 500.742 145.35C535.527 104.188 572.051 61.867 623.068 44.4745L622.489 41.5758C652.635 35.7783 683.942 36.358 714.668 39.2568C751.772 43.315 790.615 52.591 817.863 79.2594C845.111 105.348 854.967 152.307 830.618 180.715C857.866 180.135 884.534 196.368 899.028 219.558C913.521 242.748 918.16 271.156 914.681 298.404C906.565 359.857 857.866 414.353 796.992 428.267C793.514 428.847 790.035 430.006 786.557 430.586V429.426C756.99 427.107 728.582 414.353 704.233 398.12C679.304 381.307 657.853 361.016 636.403 340.145C633.504 348.842 634.084 358.118 636.403 367.394Z" fill="white"/>
<path d="M314.229 242.363C312.458 248.739 309.979 258.361 306.791 271.231C306.043 275.678 305.315 280.106 304.606 284.513C302.993 290.102 300.021 292.896 295.692 292.896C292.977 292.896 290.832 291.971 289.258 290.122C287.919 288.547 287.25 286.678 287.25 284.513C287.25 278.138 288.608 270.365 291.324 261.195C295.377 247.46 297.562 239.844 297.877 238.349C299.018 232.288 300.179 226.227 301.36 220.166C303.131 211.823 305.039 206.274 307.086 203.519C309.172 200.725 311.789 199.327 314.937 199.327C318.519 199.327 321.156 201.138 322.848 204.759C324.422 208.182 326.114 215.188 327.925 225.775C329.657 236.047 332.234 247.106 335.658 258.952C340.145 247.263 344.317 234.433 348.174 220.462L351.479 206.884C353.605 201.256 356.891 198.442 361.338 198.442C365.628 198.442 368.816 201.708 370.902 208.242C371.767 210.878 372.692 215.798 373.676 223C375.959 239.766 378.832 254.131 382.295 266.095C385.798 278.256 387.549 284.868 387.549 285.93C387.549 288.252 386.624 290.2 384.775 291.775C383.043 293.191 381.095 293.9 378.93 293.9C374.64 293.9 371.453 290.83 369.367 284.691L366.061 270.404C364.172 263.32 362.125 253.147 359.921 239.884C358.15 245.157 355.218 253.442 351.125 264.737L347.583 275.599C346.127 279.889 344.612 283.411 343.038 286.166C340.952 289.826 338.039 291.657 334.301 291.657C330.601 291.657 327.767 289.472 325.8 285.104L322.494 274.123C319.424 264.048 316.669 253.462 314.229 242.363ZM455.202 213.318C454.415 213.318 453.589 213.2 452.723 212.964C446.347 211.233 440.148 210.367 434.127 210.367C431.175 210.367 428.007 210.603 424.623 211.075C421.238 211.547 417.637 212.256 413.819 213.2C413.819 218.435 413.642 226.208 413.288 236.519C415.492 236.361 423.186 235.633 436.37 234.335C443.887 233.587 448.649 233.213 450.656 233.213C452.978 233.213 454.966 233.961 456.619 235.456C458.272 236.912 459.098 238.86 459.098 241.301C459.098 245.984 456.599 248.64 451.601 249.27C448.453 249.506 443.75 249.9 437.492 250.451C431.903 251.081 423.481 251.848 412.225 252.753C411.95 257.751 411.812 261.785 411.812 264.855C411.812 272.569 412.265 276.957 413.17 278.02C413.603 278.531 416.082 278.787 420.608 278.787C423.048 278.787 426.728 278.728 431.648 278.61C436.567 278.492 440.247 278.433 442.687 278.433C443.474 278.433 444.635 278.315 446.17 278.079C447.705 277.843 448.846 277.725 449.594 277.725C451.877 277.725 453.825 278.374 455.438 279.673C457.288 281.129 458.213 283.175 458.213 285.812C458.213 290.22 455.911 292.857 451.306 293.723C447.37 294.47 439.204 294.844 426.807 294.844C413.977 294.844 405.614 293.113 401.717 289.649C397.428 285.832 395.283 277.567 395.283 264.855C395.283 259.581 395.657 251.671 396.404 241.123C397.191 230.537 397.585 222.626 397.585 217.392C397.585 216.014 397.388 213.987 396.995 211.311C396.601 208.596 396.404 206.549 396.404 205.172C396.404 199.19 399.159 196.199 404.669 196.199C406.401 196.199 407.995 196.691 409.451 197.674C414.016 196.533 418.345 195.687 422.438 195.136C426.571 194.546 430.467 194.25 434.127 194.25C444.045 194.25 451.975 195.392 457.918 197.674C461.538 199.052 463.349 201.551 463.349 205.172C463.349 207.218 462.64 209.029 461.224 210.603C459.649 212.413 457.642 213.318 455.202 213.318ZM558.63 274.478C558.63 276.445 558.295 279.555 557.626 283.805C556.839 288.882 553.966 291.42 549.007 291.42C546.252 291.42 543.143 289.866 539.68 286.757C524.528 273.1 507.428 253.953 488.379 229.317C488.143 239.549 488.025 245.826 488.025 248.148C488.025 251.258 488.084 255.941 488.202 262.199C488.36 268.456 488.438 273.14 488.438 276.249C488.438 287.859 485.605 293.664 479.937 293.664C477.064 293.664 474.762 292.778 473.03 291.007C471.495 289.433 470.728 287.524 470.728 285.281C470.728 283.707 470.846 281.326 471.082 278.138C471.358 274.95 471.495 272.569 471.495 270.995C471.495 268.673 471.574 265.19 471.732 260.546C471.889 255.902 471.968 252.419 471.968 250.097C471.968 247.617 471.909 243.878 471.791 238.88C471.673 233.882 471.614 230.143 471.614 227.664C471.614 225.302 471.377 221.78 470.905 217.097C470.433 212.413 470.197 208.891 470.197 206.53C470.197 204.168 471.2 202.063 473.207 200.213C475.254 198.363 477.576 197.438 480.173 197.438C483.086 197.438 486.313 199.957 489.855 204.995C507.723 230.497 525.354 251.297 542.749 267.394C542.789 266.134 542.809 263.143 542.809 258.42C542.809 239.018 542.612 225.932 542.218 219.163C542.139 218.021 541.884 215.896 541.451 212.787C541.057 210.032 540.86 207.868 540.86 206.293C540.86 200.862 543.733 198.147 549.479 198.147C555.894 198.147 559.102 208.045 559.102 227.841C559.102 228.274 559.063 231.383 558.984 237.168C558.748 257.161 558.63 269.598 558.63 274.478ZM631.773 278.787C628.9 282.683 625.436 285.93 621.383 288.528C616.424 291.676 611.327 293.25 606.093 293.25C596.057 293.25 588.599 291.322 583.719 287.465C573.408 279.318 568.252 265.17 568.252 245.02C568.252 243.091 568.351 240.218 568.547 236.401C568.744 232.583 568.843 229.71 568.843 227.782C568.843 226.247 568.882 223.964 568.961 220.934C569.039 217.864 569.079 215.562 569.079 214.027C569.079 210.878 569.649 207.907 570.791 205.113C572.326 201.413 574.47 199.564 577.225 199.564C579.39 199.564 581.299 200.272 582.952 201.689C584.762 203.184 585.667 205.113 585.667 207.474C585.667 209.717 585.628 213.122 585.549 217.687C585.51 222.213 585.49 225.617 585.49 227.9C585.49 229.789 585.392 232.642 585.195 236.46C584.998 240.277 584.9 243.131 584.9 245.02C584.9 251.12 585.608 256.787 587.025 262.021C588.678 268.279 591.098 272.648 594.286 275.127C595.939 276.426 599.875 277.114 606.093 277.193C616.483 277.351 623.488 268.496 627.109 250.628C628.998 241.379 629.943 228.392 629.943 211.665C629.943 209.462 630.592 207.336 631.891 205.29C633.662 202.574 636.181 201.216 639.447 201.216C642.123 201.216 644.131 202.2 645.469 204.168C646.492 205.624 647.003 207.238 647.003 209.009C647.003 224.555 646.275 236.676 644.819 245.374C642.615 258.794 638.266 269.932 631.773 278.787Z" fill="black"/>
<path d="M360.443 108.829C365.661 74.044 400.445 46.216 435.81 47.9552C437.549 47.9552 439.288 48.535 441.028 48.535C405.083 66.5073 376.096 96.0744 358.704 132.019C358.704 125.062 358.124 118.105 358.124 111.148L360.443 108.829Z" fill="black"/>
<path d="M504.8 114.63C525.091 82.1646 559.296 58.9747 596.4 47.9595C604.516 45.0608 613.213 43.3215 621.909 41.5823L622.488 44.481C572.05 61.8734 534.947 104.775 500.162 145.357C500.162 134.922 501.901 124.486 504.8 114.63Z" fill="black"/>
<path d="M702.494 397.54C727.423 414.353 755.25 426.527 784.818 428.846V430.006C728.582 438.702 668.868 413.773 635.243 367.393L635.823 366.813C633.504 357.537 632.924 348.262 634.083 338.986C656.114 360.436 677.564 380.727 702.494 397.54Z" fill="black"/>
<path d="M413.78 345.361C435.23 390.001 477.552 423.047 525.671 433.482C476.392 435.801 422.476 415.51 412.62 368.55C411.461 369.71 410.881 370.29 409.721 371.449L408.562 369.71C407.982 361.594 409.721 352.897 413.78 345.361Z" fill="black"/>
<path d="M165.069 53.1772C148.836 71.1493 138.98 95.4987 143.618 119.268C127.965 105.354 100.717 111.152 87.9626 127.385C74.6284 143.618 72.8892 166.808 78.6867 187.099C84.4841 207.39 96.0791 225.362 107.674 242.754C99.5575 243.334 92.0208 245.653 84.4841 249.132L70.5702 240.435C47.9598 215.506 39.2636 178.403 48.5396 146.516C57.8155 114.051 114.051 57.8152 133.763 96.6582C144.198 47.3797 172.026 24.1899 220.725 15.4937C199.854 24.7696 180.142 36.3645 165.069 53.1772Z" fill="black"/>
<path d="M504.801 114.623C525.092 82.1569 559.296 58.967 596.4 47.9518C604.516 45.053 613.213 43.3138 621.909 41.5746C652.056 35.7771 683.362 36.3568 714.089 39.2556C751.192 43.3138 790.035 52.5897 817.283 79.2582C844.532 105.347 854.387 152.306 830.038 180.714C857.286 180.134 883.954 196.367 898.448 219.557C912.942 242.747 917.58 271.154 914.101 298.402C905.985 359.856 857.286 414.352 796.413 428.266C792.934 428.846 789.456 430.005 785.977 430.585C729.742 439.281 670.028 414.352 636.403 367.972C635.243 366.813 634.663 365.073 633.504 363.914C641.04 380.727 601.618 407.975 591.182 414.932C574.949 426.527 551.18 432.904 526.83 434.063C476.392 435.803 422.476 415.511 412.62 368.552C411.461 369.711 410.881 370.291 409.721 371.451C366.82 409.134 306.527 442.759 241.595 442.759C207.97 442.759 178.982 439.861 153.473 434.643" stroke="black" stroke-width="23.1899" stroke-miterlimit="10" stroke-linecap="round" stroke-linejoin="round"/>
<path d="M133.762 96.0744C144.198 46.7958 172.026 23.606 220.724 14.9098C221.884 14.9098 223.043 14.33 224.203 14.33C254.929 9.11229 287.975 14.33 314.063 31.1427C340.152 47.9553 359.284 77.5225 360.443 108.829C365.661 74.044 400.446 46.2161 435.81 47.9553C437.55 47.9553 439.289 48.5351 441.028 48.5351C474.074 53.173 502.481 83.32 503.641 116.945C504.22 116.366 504.8 115.206 505.38 114.626" stroke="black" stroke-width="23.1899" stroke-miterlimit="10" stroke-linecap="round" stroke-linejoin="round"/>
<path d="M224.202 13.1724C223.043 13.7521 221.304 14.3319 220.144 14.9116C199.853 24.7673 180.142 36.3622 165.068 52.5951C148.835 70.5672 138.98 94.9166 143.618 118.686C127.964 104.772 100.716 110.57 87.962 126.803C74.6278 143.036 72.8885 166.225 78.686 186.517C84.4835 206.808 96.0784 224.78 107.673 242.172C99.5569 242.752 92.0202 245.071 84.4835 248.55C66.5113 257.825 52.0175 276.377 47.3796 296.669C40.4226 325.076 49.6986 355.223 67.0911 378.413C84.4835 401.603 127.385 421.314 152.894 434.648" stroke="black" stroke-width="23.1899" stroke-miterlimit="10" stroke-linecap="round" stroke-linejoin="round"/>
<path d="M358.124 111.147C358.124 118.104 358.704 125.061 358.704 132.018C375.516 96.0738 405.083 65.927 441.028 48.5347H441.607" stroke="black" stroke-width="23.1899" stroke-miterlimit="10" stroke-linecap="round" stroke-linejoin="round"/>
<path d="M508.278 104.775C507.119 107.673 505.959 111.152 504.8 114.63C501.901 124.486 500.162 134.921 500.162 145.357C534.947 104.195 571.471 61.8734 622.488 44.481" stroke="black" stroke-width="23.1899" stroke-miterlimit="10" stroke-linecap="round" stroke-linejoin="round"/>
<path d="M408.562 369.71C407.982 361.014 410.301 352.897 414.359 345.361C435.81 390.001 478.132 423.047 526.251 433.482C526.83 433.482 526.83 433.482 527.41 433.482" stroke="black" stroke-width="23.1899" stroke-miterlimit="10" stroke-linecap="round" stroke-linejoin="round"/>
<path d="M636.403 367.391C634.084 358.115 633.504 348.839 634.663 339.563C656.114 360.434 677.565 380.725 702.494 397.538C727.423 414.35 755.251 426.525 784.818 428.844" stroke="black" stroke-width="23.1899" stroke-miterlimit="10" stroke-linecap="round" stroke-linejoin="round"/>
</svg>
