<svg width="765" height="484" viewBox="0 0 765 484" fill="none" xmlns="http://www.w3.org/2000/svg">
<path d="M673.669 410.215C643.163 433.212 604.678 446.823 566.663 446.353V445.415C513.16 433.682 466.228 397.074 440.884 348.264C441.823 358.59 442.761 368.445 443.7 378.77L444.169 379.24C422.58 412.562 359.221 473.574 269.111 473.574C255.031 473.574 241.89 471.697 229.218 468.881C175.715 445.415 165.859 402.237 165.859 374.077C158.82 383.464 153.188 394.258 149.433 405.522C134.415 415.378 118.927 425.234 101.562 430.396C94.0527 432.743 86.0742 434.151 78.565 434.151C41.4883 414.439 20.3687 355.774 37.7337 318.228C55.5681 280.682 95.4607 258.154 136.292 251.583C131.129 245.482 127.375 238.912 123.62 231.872C109.54 202.304 109.54 166.166 121.274 135.191C135.823 97.1754 166.798 66.6693 202.467 46.0189V45.5496C218.424 46.019 234.85 49.7736 248.461 57.7521C254.093 61.0374 259.255 65.2613 263.948 69.4852C266.295 71.8318 272.866 83.0956 275.682 83.565C275.682 92.9515 275.682 102.338 275.212 112.194C305.249 62.9147 355.467 26.7766 411.317 14.5742L411.786 12.2275C423.05 15.0435 433.844 19.2674 443.231 25.838C470.921 44.611 486.878 81.2183 478.43 113.602C474.675 121.58 470.452 130.028 466.697 138.007C492.51 112.663 527.24 97.1754 563.378 94.8288L564.317 93.4208C582.62 102.338 597.169 119.703 602.332 139.415C603.271 138.476 604.209 137.537 605.148 136.599C601.863 146.924 599.985 158.188 599.985 168.982C608.902 155.841 622.982 146.924 638.001 142.231C653.019 137.537 668.976 135.66 684.933 134.252C686.81 135.191 688.688 135.66 690.565 135.66L692.442 131.905C737.967 155.841 765.188 213.568 751.108 263.786C744.537 287.721 725.764 311.657 700.89 312.126C709.338 322.921 713.093 337.47 712.154 351.08C710.277 375.485 692.912 395.666 673.669 410.215Z" fill="white"/>
<path d="M692.442 132.376L690.565 136.13C688.688 136.13 686.811 135.661 684.933 134.722C668.976 136.13 653.019 137.538 638.001 142.701C622.982 147.863 608.433 156.311 599.985 169.452C599.985 158.658 601.393 147.394 605.148 137.069C621.574 120.643 648.326 118.296 671.323 123.928C678.363 125.805 685.872 128.621 692.442 132.376Z" fill="black"/>
<path d="M566.194 445.422V446.361C561.031 446.361 555.869 445.891 550.706 445.422C507.528 440.259 466.228 415.385 444.17 378.309C444.17 378.309 443.7 378.778 443.7 379.247L443.231 378.778C442.292 368.453 441.354 358.597 440.415 348.272C465.759 397.082 513.16 433.22 566.194 445.422Z" fill="black"/>
<path d="M564.316 93.4297L563.378 94.8377C527.24 97.1843 492.51 112.672 466.697 138.016C470.451 130.037 474.675 121.589 478.43 113.611C478.43 114.08 478.43 114.549 477.961 115.019C493.448 93.899 522.077 83.1045 547.89 88.2671C553.991 89.2058 559.154 91.0831 564.316 93.4297Z" fill="black"/>
<path d="M411.786 12.7014L411.317 14.5787C355.467 26.7811 305.25 62.9192 275.682 112.668C275.682 103.281 275.682 93.4254 276.151 84.0389C276.151 84.0389 276.151 84.0389 276.621 84.0389C279.906 84.0389 286.946 68.5512 288.823 65.7352C293.516 59.1646 298.21 53.5327 303.372 47.9008C315.575 35.6983 329.654 25.3731 345.611 18.8026C366.731 9.88541 390.197 7.53879 411.786 12.7014Z" fill="black"/>
<path d="M228.749 468.413C174.777 455.272 140.047 419.134 150.841 403.647C150.372 404.116 149.903 404.585 148.964 404.585C152.718 393.321 158.35 382.527 165.39 373.14C165.39 401.769 175.246 444.947 228.749 468.413Z" fill="black"/>
<path d="M202.467 45.5545V46.9625C166.798 67.1433 136.292 97.6494 121.274 136.134C109.54 167.11 109.54 203.248 123.62 232.815L113.764 233.284C90.7674 203.717 83.7275 162.886 94.522 127.217C105.786 91.5482 134.884 61.9807 170.553 50.7169C181.347 46.9625 191.672 45.0852 202.467 45.5545Z" fill="black"/>
<path d="M124.09 232.343C127.375 239.383 131.599 245.953 136.761 252.055C95.93 258.156 55.5681 281.153 38.2032 318.699C20.3689 355.775 41.4885 414.441 78.0957 433.683C66.8319 433.683 56.0374 431.337 46.6511 425.705C33.51 417.726 24.5928 404.585 18.4916 390.505C4.88115 357.653 7.6971 318.229 26.4701 287.254C44.7738 256.748 78.565 235.628 114.234 232.812L124.09 232.343Z" fill="black"/>
<path d="M276.151 84.0389C279.436 84.0389 286.945 68.5512 288.823 65.7352C293.516 59.1646 298.209 53.5327 303.372 47.9008C315.574 35.6983 329.654 25.3731 345.611 18.8026C366.731 9.88541 390.197 7.53879 411.786 12.7014C423.05 15.048 433.844 19.2719 443.231 25.8425C470.921 44.6155 486.878 81.2229 478.43 113.606C478.43 114.076 478.43 114.545 477.961 115.014C493.448 93.8947 522.077 83.1002 547.89 88.2628C553.522 89.2015 559.154 91.0788 564.317 93.8947C582.62 102.812 597.169 120.177 602.332 139.889C603.271 138.95 604.209 138.011 605.148 137.073C621.574 120.646 648.326 118.3 671.323 123.932C678.832 125.809 686.341 128.625 692.912 132.379C738.436 156.315 765.657 214.042 751.577 264.26C745.007 288.195 726.234 312.131 701.36 312.6C709.807 323.395 713.562 337.944 712.623 351.554C710.746 375.959 692.912 396.14 673.669 410.689C643.163 433.686 604.679 447.297 566.663 446.827C561.501 446.827 556.338 446.358 551.175 445.889C507.998 440.726 466.697 415.852 444.639 378.775C444.639 378.775 444.169 379.244 444.169 379.714C422.58 413.036 359.221 474.048 269.111 474.048C255.031 474.048 241.89 472.171 229.218 469.355C174.777 455.275 140.047 419.137 150.841 403.649C150.372 404.119 149.902 404.588 148.964 404.588C133.945 414.444 118.458 424.3 101.093 429.462C93.5834 431.809 85.6049 433.217 78.0957 433.217C66.8319 433.217 56.0374 430.87 46.6511 425.238C33.51 417.26 24.5928 404.119 18.4916 390.039C4.88115 357.186 7.6971 317.763 26.4701 286.787C44.7738 256.281 78.565 235.162 114.234 232.346C91.2368 202.778 84.1969 161.947 94.9914 126.278C106.255 90.6094 135.353 61.042 171.022 49.7781C181.347 46.4928 192.142 45.0848 202.936 45.0848C218.893 45.5541 235.32 49.3088 248.93 57.2873C254.562 60.5726 259.725 64.7965 264.418 69.0205C266.764 71.8364 273.335 83.1002 276.151 84.0389Z" stroke="black" stroke-width="18.773" stroke-miterlimit="10" stroke-linecap="round" stroke-linejoin="round"/>
<path d="M78.0962 433.218C41.4888 414.445 20.3691 355.779 37.7342 318.233C55.5686 280.687 95.4612 258.16 136.292 251.589C131.13 245.488 127.375 238.917 123.621 231.877C109.541 202.31 109.541 166.172 121.274 135.196C135.823 97.181 166.799 66.6749 202.467 46.0244" stroke="black" stroke-width="18.773" stroke-miterlimit="10" stroke-linecap="round" stroke-linejoin="round"/>
<path d="M276.151 80.2796C276.151 81.6876 276.151 83.0956 276.151 84.0342C276.151 93.4207 276.151 102.807 275.682 112.663C305.25 62.9146 355.467 26.7766 411.317 14.5741" stroke="black" stroke-width="18.773" stroke-miterlimit="10" stroke-linecap="round" stroke-linejoin="round"/>
<path d="M483.593 103.284C481.715 106.569 480.307 110.324 478.43 113.609C474.675 121.588 470.451 130.035 466.697 138.014C492.51 112.67 527.24 97.1827 563.378 94.8361" stroke="black" stroke-width="18.773" stroke-miterlimit="10" stroke-linecap="round" stroke-linejoin="round"/>
<path d="M605.617 134.721C605.617 135.191 605.148 136.129 605.148 136.599C601.863 146.924 599.985 158.188 599.985 168.982C608.903 155.841 622.982 146.924 638.001 142.231C653.019 137.537 668.976 135.66 684.933 134.252C686.811 135.191 688.688 135.66 690.565 135.66" stroke="black" stroke-width="18.773" stroke-miterlimit="10" stroke-linecap="round" stroke-linejoin="round"/>
<path d="M147.556 410.215C148.025 408.338 148.494 406.461 148.964 405.053C152.718 393.789 158.35 382.994 165.39 373.608C165.39 401.767 175.246 444.945 228.749 468.412" stroke="black" stroke-width="18.773" stroke-miterlimit="10" stroke-linecap="round" stroke-linejoin="round"/>
<path d="M443.231 378.778C442.292 368.453 441.354 358.597 440.415 348.272C465.289 397.082 512.691 433.689 566.194 445.422" stroke="black" stroke-width="18.773" stroke-miterlimit="10" stroke-linecap="round" stroke-linejoin="round"/>
<path d="M305.333 276.478C305.333 278.445 304.998 281.555 304.329 285.805C303.542 290.882 300.669 293.42 295.71 293.42C292.955 293.42 289.846 291.866 286.383 288.757C271.231 275.1 254.131 255.953 235.082 231.317C234.846 241.549 234.728 247.826 234.728 250.148C234.728 253.258 234.787 257.941 234.905 264.199C235.063 270.456 235.141 275.14 235.141 278.249C235.141 289.859 232.308 295.664 226.64 295.664C223.767 295.664 221.465 294.778 219.733 293.007C218.199 291.433 217.431 289.524 217.431 287.281C217.431 285.707 217.549 283.326 217.785 280.138C218.061 276.95 218.199 274.569 218.199 272.995C218.199 270.673 218.277 267.19 218.435 262.546C218.592 257.902 218.671 254.419 218.671 252.097C218.671 249.617 218.612 245.878 218.494 240.88C218.376 235.882 218.317 232.143 218.317 229.664C218.317 227.302 218.08 223.78 217.608 219.097C217.136 214.413 216.9 210.891 216.9 208.53C216.9 206.168 217.903 204.063 219.911 202.213C221.957 200.363 224.279 199.438 226.877 199.438C229.789 199.438 233.016 201.957 236.558 206.995C254.426 232.497 272.057 253.297 289.453 269.394C289.492 268.134 289.512 265.143 289.512 260.42C289.512 241.018 289.315 227.932 288.921 221.163C288.843 220.021 288.587 217.896 288.154 214.787C287.76 212.032 287.563 209.868 287.563 208.293C287.563 202.862 290.436 200.147 296.182 200.147C302.597 200.147 305.805 210.045 305.805 229.841C305.805 230.274 305.766 233.383 305.687 239.168C305.451 259.161 305.333 271.598 305.333 276.478ZM375.819 215.318C375.032 215.318 374.206 215.2 373.34 214.964C366.964 213.233 360.766 212.367 354.744 212.367C351.792 212.367 348.624 212.603 345.24 213.075C341.855 213.547 338.254 214.256 334.436 215.2C334.436 220.435 334.259 228.208 333.905 238.519C336.109 238.361 343.803 237.633 356.987 236.335C364.504 235.587 369.267 235.213 371.274 235.213C373.596 235.213 375.583 235.961 377.236 237.456C378.889 238.912 379.716 240.86 379.716 243.301C379.716 247.984 377.216 250.64 372.218 251.27C369.07 251.506 364.367 251.9 358.109 252.451C352.521 253.081 344.098 253.848 332.843 254.753C332.567 259.751 332.429 263.785 332.429 266.855C332.429 274.569 332.882 278.957 333.787 280.02C334.22 280.531 336.699 280.787 341.225 280.787C343.665 280.787 347.345 280.728 352.265 280.61C357.184 280.492 360.864 280.433 363.304 280.433C364.091 280.433 365.252 280.315 366.787 280.079C368.322 279.843 369.463 279.725 370.211 279.725C372.494 279.725 374.442 280.374 376.055 281.673C377.905 283.129 378.83 285.175 378.83 287.812C378.83 292.22 376.528 294.857 371.923 295.723C367.987 296.47 359.821 296.844 347.424 296.844C334.594 296.844 326.231 295.113 322.334 291.649C318.045 287.832 315.9 279.567 315.9 266.855C315.9 261.581 316.274 253.671 317.021 243.123C317.809 232.537 318.202 224.626 318.202 219.392C318.202 218.014 318.005 215.987 317.612 213.311C317.218 210.596 317.021 208.549 317.021 207.172C317.021 201.19 319.776 198.199 325.286 198.199C327.018 198.199 328.612 198.691 330.068 199.674C334.633 198.533 338.962 197.687 343.055 197.136C347.188 196.546 351.084 196.25 354.744 196.25C364.662 196.25 372.592 197.392 378.535 199.674C382.156 201.052 383.966 203.551 383.966 207.172C383.966 209.218 383.258 211.029 381.841 212.603C380.267 214.413 378.259 215.318 375.819 215.318ZM507.052 215.259C506.383 216.873 505.596 218.86 504.69 221.222C504.021 223.504 502.939 226.889 501.444 231.376C499.2 237.161 495.639 245.583 490.758 256.642C485.76 267.898 482.179 276.301 480.014 281.85C478.401 285.982 476.885 289.288 475.469 291.767C473.619 295.034 470.805 296.667 467.027 296.667C464.783 296.667 462.757 296.057 460.946 294.837C458.821 293.42 457.68 291.551 457.522 289.229C455.712 284.703 454.571 281.004 454.098 278.131C452.367 269.708 449.966 257.055 446.896 240.172C444.338 248.082 441.583 255.186 438.631 261.483C434.224 270.928 431.331 278.347 429.953 283.739C430.308 284.605 430.485 285.53 430.485 286.513C430.485 288.953 429.402 290.941 427.238 292.476C425.349 293.775 423.263 294.424 420.98 294.424C418.107 294.424 415.726 293.696 413.837 292.24C411.791 290.626 410.728 288.422 410.649 285.628L408.819 278.721C407.521 272.581 405.395 263.411 402.444 251.211C399.846 241.884 395.497 228.601 389.397 211.363C389.043 210.379 388.866 209.395 388.866 208.411C388.866 206.05 389.771 204.181 391.581 202.803C393.195 201.544 395.143 200.914 397.426 200.914C400.417 200.914 402.798 202.174 404.569 204.692C405.553 206.07 406.674 208.569 407.934 212.19C411.791 223.288 416.139 239.463 420.98 260.716C424.129 253.041 427.336 243.989 430.603 233.56C433.24 225.059 435.385 219.018 437.038 215.437C440.973 206.857 444.987 202.567 449.08 202.567C452.937 202.567 455.751 204.673 457.522 208.884C458.388 210.891 459.234 214.531 460.061 219.805C460.297 221.419 460.809 225.374 461.596 231.671C462.422 238.44 464.902 250.759 469.034 268.626C473.206 258.866 478.814 244.796 485.859 226.417C486.292 225.315 487.315 221.694 488.928 215.555C490.07 211.147 491.506 207.664 493.238 205.106C495.127 202.351 497.646 200.973 500.794 200.973C503.195 200.973 505.182 201.721 506.757 203.216C508.331 204.673 509.118 206.562 509.118 208.884C509.118 209.71 508.429 211.835 507.052 215.259ZM545.365 294.601C535.368 294.601 527.497 292.377 521.751 287.93C516.91 284.231 514.49 279.961 514.49 275.12C514.49 272.64 515.238 270.594 516.733 268.98C518.229 267.327 520.295 266.501 522.932 266.501C526.474 266.501 529.071 268.311 530.724 271.932C532.968 276.773 538.045 279.193 545.955 279.193C552.724 279.193 559.277 277.717 565.614 274.766C572.186 271.735 575.472 268.41 575.472 264.789C575.472 259.83 573.426 256.564 569.333 254.989C566.42 253.848 560.576 253.179 551.8 252.982C544.991 252.825 538.891 251.546 533.499 249.145C526.218 245.878 522.637 241.195 522.755 235.095C522.873 227.42 526.966 220.395 535.034 214.02C543.102 207.605 551.996 204.397 561.717 204.397C565.574 204.397 570.336 205.283 576.003 207.054C583.048 209.258 586.571 211.796 586.571 214.669C586.571 216.716 585.862 218.526 584.445 220.1C582.871 221.871 580.844 222.757 578.365 222.757C576.515 222.757 573.741 222.363 570.041 221.576C566.381 220.789 563.606 220.395 561.717 220.395C556.64 220.435 551.819 221.655 547.254 224.055C542.531 226.496 540.17 229.152 540.17 232.025C540.17 233.521 540.878 234.76 542.295 235.744C543.751 236.689 545.916 237.358 548.789 237.751C553.826 238.027 558.844 238.302 563.842 238.578C572.58 239.247 579.487 241.707 584.563 245.957C590.152 250.68 592.946 257.213 592.946 265.556C592.946 275.71 587.161 283.404 575.59 288.639C566.775 292.614 556.699 294.601 545.365 294.601Z" fill="black"/>
</svg>
