<svg width="1176" height="446" viewBox="0 0 1176 446" fill="none" xmlns="http://www.w3.org/2000/svg">
<path d="M1141.4 240.893C1160.59 260.086 1171.56 288.288 1166.47 314.923C1159.02 351.742 1123.77 376.027 1089.69 392.086C990.203 439.481 884.446 436.348 809.632 421.855L810.024 420.68C772.03 408.929 735.994 389.737 705.05 364.668C706.225 371.719 708.575 378.769 712.1 385.428L708.967 387.387C636.503 416.371 558.556 430.864 480.609 429.297C467.683 429.297 453.974 428.122 441.048 426.163L441.44 423.422C408.537 411.279 378.768 391.303 354.875 365.843C354.875 374.461 356.05 382.686 358.009 390.912C336.857 423.03 294.554 433.606 255.776 436.739C198.197 441.44 139.443 435.172 83.8226 418.721C77.1638 416.763 70.1133 414.413 63.4545 411.671C43.4781 388.953 36.8193 354.876 47.0033 326.282C57.5791 297.297 84.9977 274.97 115.55 270.662C126.909 236.584 138.66 202.115 158.245 171.955C177.046 142.969 203.681 117.901 236.192 107.717C261.652 104.192 287.504 109.284 307.088 125.735C310.222 132.002 313.355 138.269 316.489 144.144C318.448 114.376 332.157 86.1736 352.133 63.847C371.718 41.5204 397.178 24.6777 424.205 12.1435L423.813 9.79336C479.434 4.70133 506.461 41.5204 510.769 43.0872V43.4789C509.594 49.3543 508.028 55.2297 506.852 61.1051C533.096 40.737 563.256 25.0694 595.375 16.0605C607.126 12.5352 619.269 10.1851 631.411 12.1435L631.803 9.79336C636.112 10.5767 640.42 11.7518 644.337 12.9269C689.774 26.6362 726.201 66.9805 735.994 113.2C734.035 123.776 732.468 134.352 732.468 144.928C764.196 95.5742 816.683 60.3217 873.87 49.3543V47.0041C884.446 47.3958 894.63 49.746 904.814 54.0546C936.541 66.9805 965.918 86.9569 981.978 117.117C998.037 146.886 1003.52 181.355 1002.74 215.041H1001.17C995.687 223.267 992.162 233.059 990.595 242.851C1007.44 224.05 1030.16 210.732 1054.44 205.249L1054.83 201.723C1059.92 202.115 1065.02 203.29 1070.11 204.074C1096.74 210.341 1122.6 221.7 1141.4 240.893Z" fill="white"/>
<path d="M351.472 292.708C349.347 292.708 347.399 291.882 345.628 290.229C333.703 279.052 320.597 271.299 306.311 266.97C306.744 278.422 306.961 284.778 306.961 286.038C306.961 288.281 306.174 290.19 304.599 291.764C303.025 293.299 301.057 294.066 298.696 294.066C296.335 294.066 294.367 293.299 292.792 291.764C291.218 290.19 290.431 288.281 290.431 286.038C290.431 283.086 290.47 278.678 290.549 272.814C290.628 266.911 290.667 262.483 290.667 259.531L290.785 211.891C290.785 209.333 291.553 207.011 293.088 204.925C295.095 202.249 297.869 201.048 301.411 201.324C310.975 202.032 315.875 202.406 316.111 202.445C321.621 203.115 326.304 204.433 330.161 206.401C346.966 214.862 355.368 225.351 355.368 237.866C355.368 243.021 353.597 247.587 350.055 251.562C346.553 255.497 341.279 258.823 334.234 261.538C344.664 267.363 352.515 273.306 357.789 279.367C359.166 280.941 359.855 282.692 359.855 284.621C359.855 286.825 359.029 288.733 357.376 290.347C355.723 291.921 353.755 292.708 351.472 292.708ZM313.631 218.444C313.317 218.404 311.014 218.247 306.725 217.971V249.318C307.708 249.358 308.574 249.377 309.322 249.377C318.964 249.377 326.107 248.177 330.751 245.776C332.758 244.753 334.589 243.395 336.241 241.703C337.934 240.011 338.78 238.732 338.78 237.866C338.78 233.458 335.986 229.208 330.397 225.115C325.084 221.258 319.496 219.034 313.631 218.444ZM408.853 295.601C397.204 295.601 387.286 292.256 379.1 285.565C370.363 278.403 365.995 269.134 365.995 257.76C365.995 244.379 370.186 232.179 378.569 221.159C387.975 208.762 399.821 202.564 414.107 202.564C427.843 202.564 438.134 205.712 444.982 212.009C451.83 218.306 455.254 227.771 455.254 240.404C455.254 253.785 451.397 265.907 443.683 276.769C434.789 289.324 423.179 295.601 408.853 295.601ZM414.107 218.562C405.331 218.562 397.814 222.812 391.556 231.313C385.692 239.263 382.76 248.079 382.76 257.76C382.76 264.293 385.299 269.606 390.376 273.699C395.256 277.635 401.415 279.603 408.853 279.603C417.512 279.603 424.733 275.352 430.519 266.852C435.832 259.098 438.488 250.283 438.488 240.404C438.488 232.14 436.639 226.394 432.939 223.166C429.397 220.097 423.12 218.562 414.107 218.562ZM532.825 293.771C529.716 293.653 526.587 289.993 523.438 282.791C521.352 278.147 519.562 272.794 518.066 266.733C515.154 267.166 510.392 267.599 503.78 268.032C497.562 268.465 492.8 268.977 489.494 269.567C487.683 273.896 484.535 280.41 480.048 289.107C478.317 291.941 475.916 293.358 472.846 293.358C470.682 293.358 468.733 292.63 467.002 291.174C465.27 289.678 464.404 287.789 464.404 285.506C464.404 283.499 467.277 276.691 473.023 265.081C472.472 263.86 472.236 262.719 472.315 261.657C472.472 259.767 474.381 258.292 478.041 257.229C483.63 247.547 489.848 237.512 496.696 227.122C506.535 212.206 512.596 204.748 514.878 204.748C519.207 204.748 522.1 207.365 523.556 212.599C524.343 216.81 525.583 223.127 527.275 231.549C529.676 242.884 532.608 255.852 536.072 270.453C536.347 271.555 537.351 274.152 539.082 278.245C540.499 281.63 541.207 284.168 541.207 285.86C541.207 288.143 540.342 290.052 538.61 291.587C536.918 293.122 534.989 293.85 532.825 293.771ZM510.805 233.202C507.735 238.476 503.504 245.658 498.113 254.75C499.884 254.356 502.639 254.041 506.377 253.805C510.785 253.53 513.56 253.313 514.701 253.156C513.757 248.039 512.458 241.388 510.805 233.202ZM564.113 292.59C561.791 292.551 559.843 291.764 558.268 290.229C556.694 288.655 555.907 286.766 555.907 284.562C555.907 280.626 556.084 274.723 556.438 266.852C556.832 258.98 557.029 253.077 557.029 249.141C557.029 244.773 556.93 238.22 556.733 229.483C556.576 220.746 556.497 214.193 556.497 209.825C556.497 207.66 557.54 205.515 559.626 203.39C561.712 201.225 563.936 200.143 566.297 200.143C567.596 200.143 570.862 201.363 576.097 203.803C582.197 206.716 585.817 208.349 586.959 208.703C598.49 212.442 608.329 218.227 616.476 226.059C626.197 235.386 631.057 245.698 631.057 256.993C631.057 263.801 629.385 270.275 626.039 276.415C622.694 282.673 618.109 287.691 612.284 291.469C605.751 295.719 596.562 297.844 584.715 297.844C581.843 297.844 578.537 297.431 574.798 296.605C570.272 295.581 566.71 294.243 564.113 292.59ZM597.29 231.903C593.472 229.503 585.286 225.725 572.732 220.569V279.013C574.266 279.996 576.018 280.744 577.986 281.256C579.993 281.728 582.216 281.964 584.656 281.964C593.157 281.964 599.258 280.784 602.957 278.422C606.46 276.179 609.234 273.129 611.281 269.272C613.367 265.415 614.41 261.401 614.41 257.229C614.41 247.469 608.703 239.027 597.29 231.903ZM665.946 245.363C664.175 251.739 661.696 261.361 658.508 274.231C657.76 278.678 657.032 283.106 656.324 287.513C654.71 293.102 651.739 295.896 647.41 295.896C644.694 295.896 642.549 294.971 640.975 293.122C639.637 291.547 638.968 289.678 638.968 287.513C638.968 281.138 640.325 273.365 643.041 264.195C647.095 250.46 649.279 242.844 649.594 241.349C650.735 235.288 651.896 229.227 653.077 223.166C654.848 214.823 656.757 209.274 658.803 206.519C660.889 203.725 663.506 202.327 666.655 202.327C670.236 202.327 672.873 204.138 674.565 207.759C676.139 211.182 677.832 218.188 679.642 228.775C681.374 239.047 683.952 250.106 687.376 261.952C691.862 250.263 696.034 237.433 699.891 223.462L703.197 209.884C705.322 204.256 708.608 201.442 713.055 201.442C717.345 201.442 720.533 204.708 722.619 211.242C723.485 213.878 724.41 218.798 725.393 226C727.676 242.766 730.549 257.131 734.012 269.095C737.515 281.256 739.266 287.868 739.266 288.93C739.266 291.252 738.342 293.2 736.492 294.775C734.76 296.191 732.812 296.9 730.647 296.9C726.358 296.9 723.17 293.83 721.084 287.691L717.778 273.404C715.889 266.32 713.842 256.147 711.639 242.884C709.868 248.157 706.935 256.442 702.842 267.737L699.3 278.599C697.844 282.889 696.329 286.411 694.755 289.166C692.669 292.826 689.757 294.657 686.018 294.657C682.318 294.657 679.485 292.472 677.517 288.104L674.211 277.123C671.141 267.048 668.386 256.462 665.946 245.363ZM815.243 293.771C812.134 293.653 809.005 289.993 805.857 282.791C803.771 278.147 801.98 272.794 800.485 266.733C797.572 267.166 792.81 267.599 786.198 268.032C779.98 268.465 775.218 268.977 771.912 269.567C770.102 273.896 766.953 280.41 762.467 289.107C760.735 291.941 758.334 293.358 755.265 293.358C753.1 293.358 751.152 292.63 749.42 291.174C747.689 289.678 746.823 287.789 746.823 285.506C746.823 283.499 749.696 276.691 755.442 265.081C754.891 263.86 754.655 262.719 754.733 261.657C754.891 259.767 756.8 258.292 760.46 257.229C766.048 247.547 772.266 237.512 779.114 227.122C788.953 212.206 795.014 204.748 797.297 204.748C801.626 204.748 804.519 207.365 805.975 212.599C806.762 216.81 808.002 223.127 809.694 231.549C812.095 242.884 815.027 255.852 818.49 270.453C818.766 271.555 819.769 274.152 821.501 278.245C822.918 281.63 823.626 284.168 823.626 285.86C823.626 288.143 822.76 290.052 821.028 291.587C819.336 293.122 817.408 293.85 815.243 293.771ZM793.223 233.202C790.154 238.476 785.923 245.658 780.531 254.75C782.302 254.356 785.057 254.041 788.796 253.805C793.204 253.53 795.978 253.313 797.12 253.156C796.175 248.039 794.876 241.388 793.223 233.202ZM854.265 259.059C853.596 259.059 851.943 258.921 849.306 258.646C849.07 264.156 848.952 273.208 848.952 285.801C848.952 287.887 848.223 289.678 846.767 291.174C845.311 292.669 843.461 293.417 841.218 293.417C838.975 293.417 837.105 292.669 835.61 291.174C834.154 289.678 833.426 287.887 833.426 285.801V269.331C833.426 263.231 833.819 254.199 834.606 242.234C835.354 230.073 835.748 221.002 835.787 215.02C835.826 204.787 838.699 199.887 844.406 200.32C845.744 199.966 847.594 199.71 849.955 199.553C852.317 199.356 855.19 199.258 858.574 199.258C866.288 199.258 873.529 201.757 880.299 206.755C887.816 212.343 891.574 219.152 891.574 227.181C891.574 237.256 887.579 245.265 879.59 251.208C872.506 256.442 864.064 259.059 854.265 259.059ZM857.216 214.488C855.957 214.488 854.835 214.508 853.851 214.547C852.907 214.547 852.1 214.587 851.431 214.665C851.431 216.515 851.411 219.29 851.372 222.989C851.293 227.358 850.919 234.166 850.25 243.415C852.257 243.73 853.596 243.887 854.265 243.887C860.404 243.887 865.501 242.431 869.554 239.519C873.884 236.41 876.048 232.297 876.048 227.181C876.048 223.835 874.021 220.864 869.968 218.267C866.071 215.748 861.821 214.488 857.216 214.488Z" fill="black"/>
<path d="M705.05 364.666C735.994 389.734 771.638 408.929 810.024 420.68L809.632 421.855C749.311 410.496 709.358 391.693 708.967 386.993L712.1 385.034C708.575 378.767 706.225 372.108 705.05 364.666Z" fill="black"/>
<path d="M175.479 134.743C192.714 120.25 214.257 110.85 236.583 107.716C204.073 117.9 177.046 142.969 158.636 171.954C139.051 202.114 127.692 236.583 115.942 270.661C85.3894 274.97 57.9708 297.296 47.395 326.282C37.211 354.875 43.8698 388.953 63.8462 411.671C43.8698 403.445 25.0685 392.086 15.2762 373.285C1.17515 347.041 9.00905 312.572 29.3772 290.637C49.7452 269.094 80.689 259.302 110.458 258.91C120.642 212.69 139.051 165.687 175.479 134.743Z" fill="black"/>
<path d="M873.87 47.3955V49.7457C816.291 60.3214 763.804 95.9656 732.468 145.319C732.86 134.743 734.035 124.168 735.994 113.592C736.385 115.159 736.777 116.334 736.777 117.9C743.436 95.9656 811.199 43.8703 873.87 47.3955Z" fill="black"/>
<path d="M441.048 423.421L440.656 426.163C409.712 421.855 380.335 411.279 359.575 388.954C359.184 389.737 358.792 390.521 358.4 390.912C356.05 382.687 354.875 374.461 355.267 365.844C378.377 391.694 408.146 411.279 441.048 423.421Z" fill="black"/>
<path d="M424.205 10.1825L424.597 12.5327C397.57 25.4586 372.501 41.9097 352.525 64.2363C332.94 86.5629 319.231 114.765 316.881 144.534C313.747 138.267 310.614 131.999 307.48 126.124C309.83 79.5124 341.557 36.426 385.036 19.5832C399.137 14.0994 412.454 10.9659 424.205 10.1825Z" fill="black"/>
<path d="M307.48 125.735C309.83 79.5155 341.557 36.4291 385.036 19.5863C399.528 14.1025 412.454 10.969 424.205 9.7939C479.826 4.70187 506.852 41.5212 511.161 43.088C515.47 43.4796 540.538 16.061 583.625 9.7939C599.684 7.44373 615.744 7.05204 631.803 10.1856C636.112 10.969 640.42 12.1441 644.337 13.3191C689.774 27.0284 726.201 67.373 735.994 113.593C736.385 115.16 736.777 116.335 736.777 117.902C743.436 96.3584 810.807 43.8713 873.87 47.3966C884.446 47.7883 894.63 50.1385 904.814 54.4471C936.541 67.373 965.918 87.3494 981.978 117.51C998.037 147.279 1003.52 181.748 1002.74 215.433C1002.74 215.825 1002.74 216.217 1002.74 216.609C1015.66 202.899 1035.64 200.157 1055.22 202.116C1060.32 202.508 1065.41 203.683 1070.5 204.466C1097.14 210.341 1122.99 221.701 1141.79 240.894C1160.98 260.087 1171.95 288.289 1166.86 314.924C1159.42 351.743 1124.16 376.028 1090.09 392.086C990.595 439.481 884.838 436.347 810.024 421.855C749.703 410.496 709.75 391.694 709.359 386.996C636.895 415.979 558.948 430.472 481.001 428.905C468.075 428.905 454.365 427.73 441.44 425.772C410.496 421.463 381.119 410.887 360.359 388.562C359.967 389.346 359.575 390.129 359.184 390.521C338.032 422.638 295.729 433.214 256.951 436.348C199.372 441.048 140.618 434.781 84.9977 418.33C78.3389 416.371 71.2884 414.021 64.6296 411.279" stroke="black" stroke-width="15.6678" stroke-miterlimit="10" stroke-linecap="round" stroke-linejoin="round"/>
<path d="M63.8462 411.675C43.8698 403.449 25.0685 392.09 15.2762 373.29C1.17515 347.046 9.00905 312.577 29.3772 290.642C49.7452 269.099 80.689 259.307 110.458 258.915C120.642 212.303 139.443 164.908 175.871 134.356C193.105 119.864 214.649 110.463 236.975 107.329C262.435 103.804 288.287 108.896 307.872 125.347" stroke="black" stroke-width="15.6678" stroke-miterlimit="10" stroke-linecap="round" stroke-linejoin="round"/>
<path d="M240.892 106.546C239.325 106.937 238.15 107.329 236.583 107.721C204.073 117.905 177.046 142.973 158.636 171.958C139.052 202.119 127.692 236.588 115.942 270.665C85.3894 274.974 57.9708 297.301 47.395 326.286C37.2111 354.88 43.8698 388.957 63.8462 411.675C64.2379 412.066 64.2379 412.458 64.6296 412.85" stroke="black" stroke-width="15.6678" stroke-miterlimit="10" stroke-linecap="round" stroke-linejoin="round"/>
<path d="M304.346 119.857C305.522 121.815 306.305 123.774 307.48 125.732C310.614 131.999 313.747 138.267 316.881 144.142C318.839 114.373 332.549 86.1712 352.525 63.8446C372.11 41.518 397.57 24.6752 424.597 12.141" stroke="black" stroke-width="15.6678" stroke-miterlimit="10" stroke-linecap="round" stroke-linejoin="round"/>
<path d="M736.385 112.415C736.385 112.806 736.385 113.198 735.994 113.198C734.035 123.774 732.468 134.35 732.468 144.925C764.196 95.5719 816.683 60.3194 873.87 49.3519" stroke="black" stroke-width="15.6678" stroke-miterlimit="10" stroke-linecap="round" stroke-linejoin="round"/>
<path d="M1000.78 215.042C995.295 223.267 991.77 233.06 990.203 242.852C1007.05 224.051 1029.76 210.733 1054.05 205.249" stroke="black" stroke-width="15.6678" stroke-miterlimit="10" stroke-linecap="round" stroke-linejoin="round"/>
<path d="M358.009 390.912C355.658 382.687 354.483 374.461 354.875 365.844C378.768 391.304 408.537 411.279 441.44 423.421" stroke="black" stroke-width="15.6678" stroke-miterlimit="10" stroke-linecap="round" stroke-linejoin="round"/>
<path d="M713.275 387.776C712.884 386.993 712.492 386.209 712.1 385.426C708.575 379.159 706.225 372.108 705.05 364.666C735.994 389.734 771.638 408.929 810.024 420.68" stroke="black" stroke-width="15.6678" stroke-miterlimit="10" stroke-linecap="round" stroke-linejoin="round"/>
</svg>
